<svg width="256" height="256" viewBox="0 0 256 256" fill="none" xmlns="http://www.w3.org/2000/svg">
<g clip-path="url(#clip0_1_2)">
<circle cx="128" cy="128" r="128" fill="#939CEC"/>
<path d="M70.48 196.64L65.8 185.6C71.24 185.6 75.68 184.44 79.12 182.12C82.64 179.88 85.2 176.64 86.8 172.4C88.48 168.16 89.32 163.12 89.32 157.28V110H101.68V160.28C101.68 167.72 100.28 174.16 97.48 179.6C94.76 185.04 91.04 189.24 86.32 192.2C81.68 195.16 76.4 196.64 70.48 196.64ZM95.8 94.88C93.16 94.88 91.12 94.2 89.68 92.84C88.24 91.48 87.52 89.56 87.52 87.08C87.52 84.76 88.24 82.88 89.68 81.44C91.2 80 93.24 79.28 95.8 79.28C98.44 79.28 100.48 79.96 101.92 81.32C103.36 82.68 104.08 84.6 104.08 87.08C104.08 89.4 103.32 91.28 101.8 92.72C100.36 94.16 98.36 94.88 95.8 94.88ZM142.902 196.64L138.222 185.6C143.662 185.6 148.102 184.44 151.542 182.12C155.062 179.88 157.622 176.64 159.222 172.4C160.902 168.16 161.742 163.12 161.742 157.28V110H174.102V160.28C174.102 167.72 172.702 174.16 169.902 179.6C167.182 185.04 163.462 189.24 158.742 192.2C154.102 195.16 148.822 196.64 142.902 196.64ZM168.222 94.88C165.582 94.88 163.542 94.2 162.102 92.84C160.662 91.48 159.942 89.56 159.942 87.08C159.942 84.76 160.662 82.88 162.102 81.44C163.622 80 165.662 79.28 168.222 79.28C170.862 79.28 172.902 79.96 174.342 81.32C175.782 82.68 176.502 84.6 176.502 87.08C176.502 89.4 175.742 91.28 174.222 92.72C172.782 94.16 170.782 94.88 168.222 94.88Z" fill="#0A0D29"/>
</g>
<defs>
<clipPath id="clip0_1_2">
<rect width="256" height="256" fill="white"/>
</clipPath>
</defs>
</svg>
